<svg xmlns="http://www.w3.org/2000/svg" width="120" height="40" fill="none">
  <g clip-path="url(#A)">
    <g fill="#0b3f6c">
      <path d="M51.5 0l6.62 20 6.63-20H70l4.75 30h-5l-3.5-19.75L59.75 30H56.5l-6.63-20-3.37 20h-5l5-30h5zM17 0c2.08.56 4.24 1.13 6.08 2.29.7.44 3.94 3.25 3.93 3.83 0 .4-3.47 2.91-3.86 2.84-6.28-7.89-18.83-3.39-18.16 6.93.6 9.19 12.72 12.43 18.17 5.15.38-.08 3.85 2.44 3.86 2.84 0 .59-3.24 3.39-3.93 3.83-1.84 1.17-3.99 1.78-6.08 2.29h-4.25C6.1 28.59 1.24 23.73.01 17v-4.5C1.1 8.95 2.48 5.93 5.38 3.49 7.56 1.66 9.86.91 12.5 0H17zm80.5 0H113v6h-5.25v24h-5V6H97.5V0zm-60 6h-5v24h5V6z"/>
    </g>
    <path d="M37.5 0h-5v6h5V0z" fill="#fff"/>
    <path d="M79 30V11h15.5v5H83.75v9H94.5v5H79z" fill="#fff"/>
    <path d="M94.5 0H79V6H94.5V0Z" fill="#49b171"/>
  </g>
  <defs>
    <clipPath id="A">
      <path fill="#fff" d="M0 0h113v30H0z"/>
    </clipPath>
  </defs>
</svg>
